<svg id="line" height="512" viewBox="0 0 64 64" width="512" xmlns="http://www.w3.org/2000/svg"><path d="m58 15h-40a5.006 5.006 0 0 0 -5 5v38a5.006 5.006 0 0 0 5 5h40a5.006 5.006 0 0 0 5-5v-38a5.006 5.006 0 0 0 -5-5zm-7.376 26.6-18.248 10.534a3 3 0 0 1 -4.5-2.6v-21.07a3 3 0 0 1 4.5-2.6l18.248 10.536a3 3 0 0 1 0 5.2z" fill="#c3a1fb"/><path d="m49.624 38.134-18.248-10.534a1 1 0 0 0 -1.5.865v21.071a1 1 0 0 0 1.5.865l18.248-10.535a1 1 0 0 0 0-1.732z" fill="#c3a1fb"/><g fill="#151a6a"><path d="m26 1a24.867 24.867 0 0 0 -13.658 4.06l-9.968-3.987a1 1 0 0 0 -1.3 1.3l3.989 9.972a25 25 0 1 0 20.937-11.345zm0 48a23 23 0 0 1 -18.988-35.973 1 1 0 0 0 .1-.935l-3.312-8.292 8.294 3.318a1 1 0 0 0 .936-.1 23 23 0 1 1 12.97 41.982z"/><path d="m37.5 17.136-6.5 3.753v-2.889a1 1 0 0 0 -1-1h-16a1 1 0 0 0 -1 1v16a1 1 0 0 0 1 1h16a1 1 0 0 0 1-1v-2.885l6.5 3.753a1 1 0 0 0 1.5-.868v-16a1 1 0 0 0 -1.5-.864zm-8.5 15.864h-14v-14h14zm8-.733-6-3.463v-5.604l6-3.464z"/></g></svg>